<?xml version="1.0" encoding="utf-8"?>
<!-- Generator: Adobe Illustrator 24.1.2, SVG Export Plug-In . SVG Version: 6.00 Build 0)  -->
<svg version="1.1" id="Слой_1" xmlns="http://www.w3.org/2000/svg" xmlns:xlink="http://www.w3.org/1999/xlink" x="0px" y="0px"
	 viewBox="0 0 16 16" style="enable-background:new 0 0 16 16;" xml:space="preserve">
<style type="text/css">
	.st0{fill-rule:evenodd;clip-rule:evenodd;fill:#4F4F4F;}
</style>
<path class="st0" d="M8,0C3.6,0,0,3.4,0,7.6c0,4.2,3.6,7.6,8,7.6c4.4,0,8-3.4,8-7.6C16,3.4,12.4,0,8,0z M6.2,3.6c0.5,0,0.6,0,1.8,0
	h0c1.2,0,1.3,0,1.8,0c0.5,0,0.8,0.1,1,0.2c0.3,0.1,0.5,0.2,0.8,0.5C11.8,4.5,11.9,4.7,12,5c0.1,0.3,0.2,0.6,0.2,1c0,0.4,0,0.6,0,1.7
	s0,1.2,0,1.7c0,0.4-0.1,0.7-0.2,1c-0.1,0.3-0.3,0.5-0.5,0.7c-0.2,0.2-0.5,0.4-0.8,0.5c-0.3,0.1-0.6,0.2-1,0.2c-0.5,0-0.6,0-1.8,0
	c-1.2,0-1.3,0-1.8,0c-0.5,0-0.8-0.1-1-0.2c-0.3-0.1-0.5-0.2-0.8-0.5c-0.2-0.2-0.4-0.5-0.5-0.7c-0.1-0.3-0.2-0.6-0.2-1
	c0-0.4,0-0.6,0-1.7s0-1.2,0-1.7c0-0.4,0.1-0.7,0.2-1c0.1-0.3,0.3-0.5,0.5-0.7C4.7,4,4.9,3.9,5.2,3.8C5.5,3.7,5.8,3.6,6.2,3.6z
	 M7.6,4.3l0.2,0l0.1,0c1.1,0,1.3,0,1.7,0c0.4,0,0.6,0.1,0.8,0.1c0.2,0.1,0.3,0.2,0.5,0.3c0.1,0.1,0.2,0.3,0.3,0.5
	c0.1,0.1,0.1,0.4,0.1,0.8c0,0.4,0,0.6,0,1.6c0,1.1,0,1.2,0,1.6c0,0.4-0.1,0.6-0.1,0.8c-0.1,0.2-0.2,0.3-0.3,0.5
	c-0.1,0.1-0.3,0.2-0.5,0.3c-0.2,0.1-0.4,0.1-0.8,0.1c-0.4,0-0.6,0-1.7,0c-1.1,0-1.3,0-1.7,0c-0.4,0-0.6-0.1-0.8-0.1
	c-0.2-0.1-0.3-0.2-0.5-0.3c-0.1-0.1-0.2-0.3-0.3-0.5C4.6,9.9,4.5,9.7,4.5,9.3c0-0.4,0-0.6,0-1.6c0-1.1,0-1.2,0-1.6
	c0-0.4,0.1-0.6,0.1-0.8C4.7,5,4.8,4.9,5,4.8c0.1-0.1,0.3-0.2,0.5-0.3c0.2-0.1,0.4-0.1,0.8-0.1C6.7,4.3,6.8,4.3,7.6,4.3L7.6,4.3z
	 M10.3,5C10,5,9.8,5.2,9.8,5.4c0,0.3,0.2,0.5,0.5,0.5c0.3,0,0.5-0.2,0.5-0.5S10.6,5,10.3,5L10.3,5z M5.8,7.6c0-1.2,1-2.1,2.2-2.1
	c1.2,0,2.2,0.9,2.2,2.1S9.2,9.7,8,9.7S5.8,8.8,5.8,7.6z M8,6.3c0.8,0,1.4,0.6,1.4,1.4C9.4,8.4,8.8,9,8,9C7.2,9,6.6,8.4,6.6,7.6
	C6.6,6.9,7.2,6.3,8,6.3z"/>
</svg>
